<?xml version="1.0" encoding="utf-8"?>
<!-- Generator: Adobe Illustrator 24.0.1, SVG Export Plug-In . SVG Version: 6.00 Build 0)  -->
<svg version="1.1" id="Capa_1" xmlns="http://www.w3.org/2000/svg" xmlns:xlink="http://www.w3.org/1999/xlink" x="0px" y="0px"
	 viewBox="0 0 512 512" style="enable-background:new 0 0 512 512;" xml:space="preserve">
<style type="text/css">
	.st0{fill:#FFFFFF;}
</style>
<g>
	<g>
		<path class="st0" d="M402,166c-5.52,0-10,4.48-10,10s4.48,10,10,10s10-4.48,10-10S407.52,166,402,166z"/>
	</g>
</g>
<g>
	<g>
		<path class="st0" d="M482,126H372.18l-31.71-63.41C335.36,52.36,325.08,46,313.64,46H198.36c-11.44,0-21.72,6.36-26.83,16.59
			L139.82,126H120v-10c0-16.54-13.46-30-30-30H70c-16.54,0-30,13.46-30,30v10H30c-16.54,0-30,13.46-30,30c0,27.18,0,269.43,0,280
			c0,16.54,13.46,30,30,30h452c16.54,0,30-13.46,30-30c0-27.17,0-269.43,0-280C512,139.46,498.54,126,482,126z M189.41,71.53
			c1.71-3.41,5.13-5.53,8.95-5.53h115.28c3.81,0,7.24,2.12,8.95,5.53L349.82,126H162.18L189.41,71.53z M60,116c0-5.51,4.49-10,10-10
			h20c5.51,0,10,4.49,10,10v10H60V116z M20,225.9h126.45C133.16,246.66,126,270.99,126,296c0,25.01,7.16,49.24,20.45,70H20V225.9z
			 M256,186c60.13,0,110,48.72,110,110c0,61.21-49.8,110-110,110c-60.26,0-110-48.84-110-110C146,234.79,195.79,186,256,186z
			 M492,436c0,5.51-4.49,10-10,10H30c-5.51,0-10-4.49-10-10v-50h142.23c24.43,25.47,58.35,40,93.77,40c35.43,0,69.35-14.53,93.77-40
			H492V436z M492,366H365.55c13.29-20.76,20.45-44.99,20.45-70s-7.16-49.24-20.45-70H492V366z M492,206H349.77
			c-24.43-25.47-58.35-40-93.77-40c-35.43,0-69.35,14.53-93.78,40H20v-50c0-5.51,4.49-10,10-10c9.08,0,437.94,0,452,0
			c5.51,0,10,4.49,10,10V206z"/>
	</g>
</g>
<g>
	<g>
		<path class="st0" d="M286,86h-60c-5.52,0-10,4.48-10,10s4.48,10,10,10h60c5.52,0,10-4.48,10-10S291.52,86,286,86z"/>
	</g>
</g>
<g>
	<g>
		<path class="st0" d="M256,206c-49.63,0-90,40.37-90,90s40.37,90,90,90s90-40.37,90-90S305.63,206,256,206z M256,366
			c-38.6,0-70-31.4-70-70s31.4-70,70-70s70,31.4,70,70S294.6,366,256,366z"/>
	</g>
</g>
<g>
	<g>
		<path class="st0" d="M256,246c-27.57,0-50,22.43-50,50c0,5.52,4.48,10,10,10s10-4.48,10-10c0-16.54,13.46-30,30-30
			c5.52,0,10-4.48,10-10S261.52,246,256,246z"/>
	</g>
</g>
<g>
	<g>
		<path class="st0" d="M462,166h-20c-5.52,0-10,4.48-10,10s4.48,10,10,10h20c5.52,0,10-4.48,10-10S467.52,166,462,166z"/>
	</g>
</g>
</svg>
