<?xml version="1.0" encoding="utf-8"?>
<!-- Generator: Adobe Illustrator 24.0.1, SVG Export Plug-In . SVG Version: 6.00 Build 0)  -->
<svg version="1.1" id="Layer_1" xmlns="http://www.w3.org/2000/svg" xmlns:xlink="http://www.w3.org/1999/xlink" x="0px" y="0px"
	 viewBox="0 0 512 512" style="enable-background:new 0 0 512 512;" xml:space="preserve">
<style type="text/css">
	.st0{fill:#FFFFFF;}
</style>
<path class="st0" d="M256,126c-5.52,0-10,4.48-10,10s4.48,10,10,10s10-4.48,10-10S261.52,126,256,126z"/>
<path class="st0" d="M90,306c5.52,0,10-4.48,10-10s-4.48-10-10-10s-10,4.48-10,10S84.48,306,90,306z"/>
<path class="st0" d="M336,26c-90.03,0-163.92,62.07-169.63,140.25C80.63,170.55,0,232.38,0,316c0,34.95,13.83,68.8,39,95.63
	c4.98,20.53-1.07,42.29-16.07,57.3c-2.86,2.86-3.71,7.16-2.17,10.9c1.55,3.73,5.19,6.17,9.24,6.17c28.52,0,56-11.18,76.43-30.89
	C126.32,461.89,152.28,466,176,466c90.02,0,163.9-62.05,169.63-140.22c20.94-0.93,42.71-4.8,59.95-10.67
	C426,334.82,453.48,346,482,346c4.05,0,7.69-2.44,9.24-6.17c1.55-3.74,0.69-8.04-2.17-10.9c-15-15-21.05-36.77-16.07-57.3
	c25.17-26.83,39-60.69,39-95.63C512,89.11,425.16,26,336,26z M176,446c-23.6,0-50.5-4.63-68.51-11.8
	c-3.86-1.54-8.27-0.53-11.08,2.54c-12.07,13.2-27.77,22.4-44.88,26.63c9.43-18.06,11.83-39.35,6.1-59.52
	c-0.45-1.59-1.29-3.04-2.45-4.23C32.5,376.26,20,346.56,20,316c0-70.47,71.44-130,156-130c79.85,0,150,55.53,150,130
	C326,387.68,258.71,446,176,446z M456.82,259.62c-1.15,1.19-1.99,2.64-2.45,4.23c-5.73,20.17-3.33,41.46,6.1,59.52
	c-17.11-4.23-32.8-13.43-44.88-26.63c-2.81-3.06-7.22-4.08-11.08-2.54c-15.61,6.21-37.89,10.51-58.91,11.55
	c-2.92-37.82-21.79-73.36-54.04-99.75H422c5.52,0,10-4.48,10-10s-4.48-10-10-10H260.84c-22.7-11.55-48.19-18.29-74.42-19.71
	C192.16,99.13,257.06,46,336,46c84.56,0,156,59.53,156,130C492,206.56,479.5,236.26,456.82,259.62z"/>
<path class="st0" d="M256,286H130c-5.52,0-10,4.48-10,10s4.48,10,10,10h126c5.52,0,10-4.48,10-10S261.52,286,256,286z"/>
<path class="st0" d="M256,346H90c-5.52,0-10,4.48-10,10s4.48,10,10,10h166c5.52,0,10-4.48,10-10S261.52,346,256,346z"/>
<path class="st0" d="M422,126H296c-5.52,0-10,4.48-10,10s4.48,10,10,10h126c5.52,0,10-4.48,10-10S427.52,126,422,126z"/>
</svg>
