<?xml version="1.0" encoding="utf-8"?>
<!-- Generator: Adobe Illustrator 24.0.1, SVG Export Plug-In . SVG Version: 6.00 Build 0)  -->
<svg version="1.1" id="Layer_1" xmlns="http://www.w3.org/2000/svg" xmlns:xlink="http://www.w3.org/1999/xlink" x="0px" y="0px"
	 viewBox="0 0 511 512" style="enable-background:new 0 0 511 512;" xml:space="preserve">
<style type="text/css">
	.st0{fill:#FFFFFF;}
</style>
<path class="st0" d="M290,511h-81.99c-13.7,0-24.84-11.14-24.84-24.84V301.23h-47.84c-13.7,0-24.84-11.14-24.84-24.84v-79.25
	c0-13.7,11.14-24.84,24.84-24.84h47.84v-39.68c0-39.35,12.36-72.82,35.73-96.8C242.38,11.73,275.18-1,313.78-1l62.53,0.1
	c13.67,0.02,24.79,11.16,24.79,24.84v73.58c0,13.7-11.14,24.84-24.83,24.84l-42.1,0.02c-12.84,0-16.11,2.57-16.81,3.36
	c-1.15,1.31-2.52,5.01-2.52,15.22v31.35h58.27c4.39,0,8.64,1.08,12.29,3.12c7.88,4.4,12.78,12.73,12.78,21.72l-0.03,79.25
	c0,13.69-11.14,24.83-24.84,24.83h-58.47v184.94C314.84,499.86,303.7,511,290,511z M213.19,480.98h71.63v-193.2
	c0-9.14,7.44-16.58,16.58-16.58h66.73l0.03-68.88H301.4c-9.14,0-16.58-7.44-16.58-16.58v-44.79c0-11.73,1.19-25.06,10.04-35.09
	c10.7-12.12,27.55-13.52,39.3-13.52l36.92-0.02V29.11l-57.33-0.09c-62.02,0-100.57,39.7-100.57,103.61v53.12
	c0,9.14-7.44,16.58-16.58,16.58h-56.09v68.88h56.09c9.14,0,16.58,7.44,16.58,16.58V480.98z M376.25,29.12L376.25,29.12L376.25,29.12
	z"/>
</svg>
