<?xml version="1.0" encoding="utf-8"?>
<!-- Generator: Adobe Illustrator 24.0.1, SVG Export Plug-In . SVG Version: 6.00 Build 0)  -->
<svg version="1.1" id="Layer_1" xmlns="http://www.w3.org/2000/svg" xmlns:xlink="http://www.w3.org/1999/xlink" x="0px" y="0px"
	 viewBox="0 0 512 512" style="enable-background:new 0 0 512 512;" xml:space="preserve">
<style type="text/css">
	.st0{fill:#FFFFFF;}
</style>
<g>
	<g>
		<path class="st0" d="M488.4,492h-21.93V173.54c0-14.82-12.06-26.88-26.88-26.88h-49.02c-14.82,0-26.88,12.06-26.88,26.88V492
			h-55.69V317.83c0-14.82-12.06-26.88-26.88-26.88h-49.02c-14.82,0-26.88,12.06-26.88,26.88V492h-55.69v-90.2
			c0-14.82-12.06-26.88-26.88-26.88H73.6c-14.82,0-26.88,12.06-26.88,26.88V492H23.6c-5.52,0-10,4.48-10,10s4.48,10,10,10h464.8
			c5.52,0,10-4.48,10-10S493.92,492,488.4,492z M129.5,492H66.72v-90.2c0-3.8,3.09-6.88,6.88-6.88h49.02c3.79,0,6.88,3.09,6.88,6.88
			L129.5,492L129.5,492z M287.98,492H225.2V317.83c0-3.8,3.09-6.88,6.88-6.88h49.02c3.79,0,6.88,3.09,6.88,6.88V492z M446.47,492
			h-62.79V173.54c0-3.79,3.09-6.88,6.88-6.88h49.02c3.8,0,6.88,3.09,6.88,6.88L446.47,492L446.47,492z"/>
	</g>
</g>
<g>
	<g>
		<path class="st0" d="M466.44,10.52c0.14-2.73-0.82-5.5-2.9-7.59c-2.08-2.08-4.86-3.05-7.59-2.9C455.79,0.02,455.63,0,455.47,0
			h-60.5c-5.52,0-10,4.48-10,10s4.48,10,10,10h37.36l-98.86,98.86l-37.28-37.28c-1.88-1.88-4.42-2.93-7.07-2.93s-5.2,1.05-7.07,2.93
			L102.27,261.35c-3.9,3.9-3.9,10.24,0,14.14c1.95,1.95,4.51,2.93,7.07,2.93s5.12-0.98,7.07-2.93l172.7-172.7l37.28,37.28
			c3.9,3.9,10.24,3.9,14.14,0L446.47,34.14v33.81c0,5.52,4.48,10,10,10s10-4.48,10-10V11C466.47,10.84,466.45,10.68,466.44,10.52z"
			/>
	</g>
</g>
<g>
	<g>
		<circle class="st0" cx="75.64" cy="303.31" r="10"/>
	</g>
</g>
</svg>
