<?xml version="1.0" encoding="utf-8"?>
<!-- Generator: Adobe Illustrator 24.0.1, SVG Export Plug-In . SVG Version: 6.00 Build 0)  -->
<svg version="1.1" id="Capa_1" xmlns="http://www.w3.org/2000/svg" xmlns:xlink="http://www.w3.org/1999/xlink" x="0px" y="0px"
	 viewBox="0 0 512 512" style="enable-background:new 0 0 512 512;" xml:space="preserve">
<style type="text/css">
	.st0{fill:#FFFFFF;}
</style>
<g>
	<g>
		<path class="st0" d="M407.82,0H104.18C82.81,0,62.45,6.71,45.31,19.39c-3.34,2.47-4.04,7.19-1.57,10.53s7.19,4.04,10.53,1.57
			c14.52-10.75,31.78-16.44,49.91-16.44h303.63c46.3,0,83.96,37.67,83.96,83.96v199.14c0,46.3-37.67,83.96-83.96,83.96H279.48
			c-3.1,0-6.1,1.3-8.22,3.55L168.2,495.26c-2.23,2.36-4.8,1.69-5.81,1.3c-1.01-0.4-3.35-1.68-3.35-4.92V393.4
			c0-6.22-5.06-11.28-11.28-11.28h-43.57c-46.3,0-83.96-37.67-83.96-83.96V99.01c0-17.03,5.07-33.43,14.66-47.42
			c2.35-3.43,1.48-8.11-1.95-10.46c-3.43-2.35-8.11-1.48-10.46,1.95C11.15,59.59,5.17,78.93,5.17,99.01v199.14
			c0,54.6,44.42,99.01,99.01,99.01h39.8v94.46c0,8.4,5.04,15.82,12.85,18.92c2.46,0.98,5.02,1.45,7.54,1.45
			c5.49,0,10.84-2.24,14.78-6.42l101.95-108.4h126.7c54.6,0,99.01-44.42,99.01-99.01V99.01C506.83,44.42,462.41,0,407.82,0z"/>
	</g>
</g>
<g>
	<g>
		<path class="st0" d="M364.12,120.93c-26.12-26.12-68.64-26.12-94.76,0l-13.12,13.12c-0.04,0.04-0.14,0.14-0.34,0.14
			c-0.2,0-0.31-0.11-0.34-0.14l-12.91-12.91c-26.12-26.12-68.64-26.12-94.76,0c-26.12,26.12-26.12,68.64,0,94.76l97.04,97.03
			c2.93,2.93,6.84,4.55,10.99,4.55s8.05-1.62,10.99-4.55l53.33-53.33c2.94-2.94,2.94-7.71,0-10.64c-2.94-2.94-7.71-2.94-10.64,0
			l-53.33,53.33c-0.04,0.04-0.14,0.14-0.34,0.14c-0.2,0-0.31-0.11-0.34-0.14l-97.04-97.04c-20.26-20.26-20.26-53.21,0-73.47
			s53.21-20.25,73.47,0l12.91,12.91c2.93,2.93,6.84,4.55,10.99,4.55c4.15,0,8.05-1.62,10.99-4.55L280,131.58
			c20.26-20.25,53.22-20.25,73.47,0c20.26,20.26,20.26,53.21,0,73.47L331,227.53c-2.94,2.94-2.94,7.71,0,10.64
			c2.94,2.94,7.71,2.94,10.64,0l22.47-22.48C390.24,189.57,390.24,147.06,364.12,120.93z"/>
	</g>
</g>
</svg>
