<?xml version="1.0" encoding="utf-8"?>
<!-- Generator: Adobe Illustrator 24.0.1, SVG Export Plug-In . SVG Version: 6.00 Build 0)  -->
<svg version="1.1" id="Layer_1" xmlns="http://www.w3.org/2000/svg" xmlns:xlink="http://www.w3.org/1999/xlink" x="0px" y="0px"
	 viewBox="0 0 508 508" style="enable-background:new 0 0 508 508;" xml:space="preserve">
<style type="text/css">
	.st0{fill:#FFFFFF;}
</style>
<g>
	<g>
		<path class="st0" d="M484.25,139.84c-3.15,0-5.71,2.56-5.71,5.71v85.02c0,3.15,2.56,5.71,5.71,5.71s5.71-2.56,5.71-5.71v-85.02
			C489.96,142.4,487.4,139.84,484.25,139.84z"/>
	</g>
</g>
<g>
	<g>
		<path class="st0" d="M330.56,211.71c-15.87-21.96-41.39-35.06-68.24-35.06c-26.83,0-52.34,13.11-68.22,35.07
			c-10.41,14.45-15.92,31.42-15.92,49.06c0,46.39,37.75,84.13,84.14,84.13c46.41,0,84.17-37.74,84.17-84.12
			C346.49,243.17,340.99,226.21,330.56,211.71z M262.32,333.47c-40.09,0-72.72-32.61-72.72-72.7c0-15.23,4.76-29.88,13.76-42.37
			c13.73-19,35.77-30.33,58.95-30.33c23.2,0,45.24,11.34,58.96,30.32c9.02,12.53,13.77,27.19,13.77,42.39
			C335.06,300.86,302.43,333.47,262.32,333.47z"/>
	</g>
</g>
<g>
	<g>
		<path class="st0" d="M443.7,209.7h-68.52c-1.98,0-3.83,1.03-4.87,2.72c-1.04,1.7-1.13,3.8-0.23,5.58
			c5.08,10.06,8.37,26.91,8.37,42.96c0,63.98-52.1,116.02-116.13,116.02c-64.03,0-116.12-52.03-116.12-115.98
			c0-16.12,3.28-33,8.36-43c0.9-1.77,0.82-3.88-0.22-5.58c-1.05-1.69-2.89-2.73-4.87-2.73h-68.5c-3.15,0-5.71,2.56-5.71,5.71v182.04
			c0,26.84,23.54,50.38,50.39,50.38H399c26.86,0,50.41-23.54,50.41-50.39V215.41C449.41,212.26,446.85,209.7,443.7,209.7z
			 M437.99,397.45c0,20.39-18.58,38.96-38.99,38.96H125.64c-20.39,0-38.96-18.57-38.96-38.96V221.13h54.23
			c-3.86,11.19-6.14,25.66-6.14,39.87c0,70.25,57.22,127.4,127.54,127.4c70.33,0,127.56-57.17,127.56-127.45
			c0-14.16-2.29-28.61-6.15-39.83h54.26L437.99,397.45L437.99,397.45z"/>
	</g>
</g>
<g>
	<g>
		<path class="st0" d="M436.39,85.25c-1.08-1.07-2.46-1.42-4.06-1.66l-74.62,0.26c-3.14,0.01-5.69,2.56-5.7,5.7l-0.17,75.51
			c-0.01,1.53,0.6,2.98,1.67,4.06c1.07,1.07,2.53,1.67,4.04,1.67c0.01,0,0.01,0,0.02,0l74.81-0.27c3.15-0.01,5.7-2.57,5.7-5.71V89.3
			C438.08,87.78,437.47,86.32,436.39,85.25z M426.65,159.11l-63.36,0.23l0.15-64.08l63.22-0.21V159.11z"/>
	</g>
</g>
<g>
	<g>
		<path class="st0" d="M483.38,255.05c-3.15,0-5.71,2.56-5.71,5.71v136.7c0,44.09-34.55,78.64-78.66,78.64H125.64
			c-44.1,0-78.64-34.54-78.64-78.64V124.07c0-44.11,34.55-78.65,78.64-78.65H399c44.6,0,79.53,34.92,79.53,79.51
			c0,3.15,2.56,5.71,5.71,5.71s5.71-2.56,5.71-5.71c0-51-39.95-90.94-90.96-90.94H125.64c-50.5,0-90.07,39.57-90.07,90.07v273.38
			c0,50.5,39.56,90.06,90.07,90.06H399c50.52,0,90.08-39.55,90.09-90.06v-136.7C489.09,257.6,486.53,255.05,483.38,255.05z"/>
	</g>
</g>
</svg>
