<?xml version="1.0" encoding="utf-8"?>
<!-- Generator: Adobe Illustrator 24.0.1, SVG Export Plug-In . SVG Version: 6.00 Build 0)  -->
<svg version="1.1" id="Layer_1" xmlns="http://www.w3.org/2000/svg" xmlns:xlink="http://www.w3.org/1999/xlink" x="0px" y="0px"
	 viewBox="0 0 512 512" style="enable-background:new 0 0 512 512;" xml:space="preserve">
<style type="text/css">
	.st0{fill:#FFFFFF;}
</style>
<g>
	<g>
		<path class="st0" d="M476.11,248.43c-4.45,0-8.06,3.61-8.06,8.06v9.45h-49.69h-62.75h-49.69v-85.38h33.46h95.19h33.47v50.15
			c0,4.45,3.61,8.06,8.06,8.06c4.45,0,8.06-3.61,8.06-8.06v-58.21c0-4.45-3.61-8.05-8.06-8.05h-18.99
			c17.21-17.87,27.05-41.76,27.05-67.27C484.17,43.59,440.58,0,386.99,0s-97.18,43.59-97.18,97.18c0,25.51,9.83,49.4,27.05,67.27
			h-18.99c-4.45,0-8.06,3.61-8.06,8.06V274c0,4.45,3.61,8.06,8.06,8.06h38.3c-14.44,1.88-34.14,6.35-49.94,16.9v-1.43
			c0-4.45-3.61-8.06-8.06-8.06h-34.11v-8.8c0-4.45-3.61-8.06-8.06-8.06H35.89c-4.45,0-8.06,3.61-8.06,8.06v189.42
			c0,4.45,3.61,8.06,8.06,8.06H236c4.45,0,8.06-3.61,8.06-8.06v-8.79h34.11c4.45,0,8.06-3.61,8.06-8.06v-0.3
			c11.17,5.66,30.12,11.83,61.33,14.15v5.48c0,21.74,17.69,39.43,39.43,39.43s39.43-17.69,39.43-39.43v-4.5h7.32
			c14.57,0,27.34-11.8,27.34-25.24c0-3.66-0.78-7.15-2.18-10.3c9.77-3.48,16.79-12.83,16.79-23.79c0-5.58-1.8-10.77-4.9-14.97
			c5.38-4.63,8.78-11.49,8.78-19.12c0-8.97-4.71-16.86-11.78-21.34c2.2-3.75,3.44-8.11,3.44-12.75c0-12.86-9.67-23.5-22.13-25.04
			c1.18-2.92,1.83-6.11,1.83-9.46c0-11.14-7.21-20.61-17.21-24.02h42.39c4.45,0,8.06-3.61,8.06-8.06v-17.5
			C484.17,252.04,480.57,248.43,476.11,248.43z M305.93,97.18c0-44.7,36.36-81.06,81.06-81.06s81.06,36.37,81.06,81.06
			c0,27.17-13.36,52.14-35.86,67.27h-90.4C319.29,149.32,305.93,124.34,305.93,97.18z M227.95,297.52v155.72v8.79h-184v-173.3h184
			L227.95,297.52L227.95,297.52z M270.12,316.92v120.49v7.77h-26.06v-139.6h26.06V316.92z M363.68,282.05h46.63v6.7v26.57h-46.45
			v-26.57c0-0.58-0.07-1.15-0.18-1.7V282.05z M410.31,472.57c0,12.86-10.46,23.31-23.32,23.31s-23.32-10.46-23.32-23.31v-4.5h9.61
			h37.02L410.31,472.57L410.31,472.57z M445.99,331.44c5.03,0,9.12,4.09,9.12,9.12c0,4.31-2.99,7.95-7.18,8.85h-57.86
			c-4.45,0-8.06,3.61-8.06,8.06s3.61,8.06,8.06,8.06h58.65h5.61c5.03,0,9.13,4.09,9.13,9.12c0,5.03-4.1,9.13-9.13,9.13h-0.76
			c-0.18-0.01-0.36-0.03-0.54-0.03h-59.91c-4.45,0-8.06,3.61-8.06,8.06s3.61,8.06,8.06,8.06h59.14c4.26,0.86,7.32,4.53,7.32,8.88
			c0,5.03-4.1,9.13-9.13,9.13h-11.83c-0.3,0-0.61,0.02-0.9,0.05c-0.39-0.06-0.8-0.1-1.21-0.1h-43.39c-4.45,0-8.06,3.61-8.06,8.06
			s3.61,8.06,8.06,8.06h43.39c0.29,0,0.58-0.02,0.87-0.05c4.41,0.75,7.6,4.5,7.6,8.94c0,4.52-5.67,9.13-11.23,9.13h-15.37h-44.66
			c-0.2-0.02-0.43-0.03-0.67-0.03c-59.48-0.23-81.08-13.36-86.8-17.93V319.9c16.03-17.49,46.71-21.73,61.33-22.76v26.24
			c0,4.45,3.61,8.06,8.06,8.06h0.18h62.56h7.19L445.99,331.44L445.99,331.44z M434.82,306.07c0,4.81-3.69,8.78-8.39,9.22v-18.43
			C431.12,297.29,434.82,301.26,434.82,306.07z"/>
	</g>
</g>
<g>
	<g>
		<path class="st0" d="M200.51,306h-21.09c-4.45,0-8.06,3.61-8.06,8.06s3.61,8.06,8.06,8.06h21.09c4.45,0,8.06-3.61,8.06-8.06
			S204.96,306,200.51,306z"/>
	</g>
</g>
<g>
	<g>
		<path class="st0" d="M386.99,31.42c-4.45,0-8.06,3.61-8.06,8.06s3.61,8.06,8.06,8.06c27.73,0,50.28,22.55,50.28,50.28
			c0,4.45,3.61,8.06,8.06,8.06s8.06-3.61,8.06-8.06C453.39,61.21,423.6,31.42,386.99,31.42z"/>
	</g>
</g>
</svg>
