<?xml version="1.0" encoding="utf-8"?>
<!-- Generator: Adobe Illustrator 24.0.1, SVG Export Plug-In . SVG Version: 6.00 Build 0)  -->
<svg version="1.1" id="Layer_1" xmlns="http://www.w3.org/2000/svg" xmlns:xlink="http://www.w3.org/1999/xlink" x="0px" y="0px"
	 viewBox="0 0 512 512" style="enable-background:new 0 0 512 512;" xml:space="preserve">
<style type="text/css">
	.st0{fill:#FFFFFF;}
</style>
<g id="_x30_07---Vegan-Certified">
	<path id="Shape" class="st0" d="M89.69,232.19c3.5,13.06-5.55,33.37,3.75,49.32c9.3,15.96,31.83,18.77,40.79,27.82
		c5.66,8.02,10.49,16.6,14.42,25.6l-45.23,132.01c-2.13,6.87,0.27,14.33,6,18.67s13.57,4.62,19.6,0.7l28.33-20.05l9.98,33.19
		c2.11,7.12,8.58,12.06,16.01,12.22c7.43,0.16,14.1-4.51,16.51-11.54l44.2-127.23c7.63,3.24,16.26,3.24,23.89,0l43.86,127.57
		c2.41,7.03,9.08,11.69,16.51,11.54c7.43-0.16,13.9-5.1,16.01-12.22l9.98-33.19l28.33,19.8c6.03,3.92,13.87,3.64,19.6-0.7
		c5.73-4.34,8.13-11.8,6-18.67l-44.89-131.75c3.94-8.98,8.74-17.55,14.34-25.6c9.3-9.56,31.91-12.12,40.87-28.07
		c8.96-15.96,0.43-36.69,3.75-49.32s21.42-25.86,21.42-44.54s-18.26-32.6-21.42-44.54s5.55-33.37-3.75-49.32
		s-31.83-18.77-40.79-27.82s-11.78-31.91-27.9-40.96s-36.69,0-49.32-3.67C287.91,17.75,274.77,0,256,0s-32.51,18.18-44.54,21.42
		c-13.31,3.5-33.28-5.63-49.32,3.67s-18.69,31.74-27.82,40.87s-31.91,11.78-40.45,27.9s0,36.69-3.75,49.32
		c-3.75,12.63-21.85,25.69-21.85,44.54S86.44,220.07,89.69,232.19L89.69,232.19z M184.06,494.93l-9.98-33.37
		c-1.69-5.2-5.76-9.28-10.96-10.97s-10.9-0.78-15.32,2.44l-28.33,19.8c45.74-133.21,41.81-122.97,42.67-122.97
		c15.7,9.13,36.69,0,49.32,3.67c6.15,2.64,11.9,6.15,17.07,10.41L184.06,494.93z M364.2,452.27c-4.54-3.2-10.35-3.99-15.58-2.13
		c-5.23,1.87-9.22,6.16-10.71,11.51l-9.98,33.28l-44.89-130.65c5.12-4.3,10.88-7.78,17.07-10.33c13.4-3.58,33.28,5.55,49.32-3.75
		c0.85-0.51-2.99-10.41,42.67,122.54L364.2,452.27z M94.89,168.11c12.2-17.07,13.91-22.7,11.95-44.8
		c-1.96-22.1-0.77-23.64,19.11-32.77s23.81-13.14,32.85-32.94c9.05-19.8,11.86-20.99,32.85-19.03c20.99,1.96,27.56,0,44.8-11.95
		s21.08-12.71,39.08,0s23.13,13.82,44.8,11.95c21.67-1.88,23.72-0.77,32.85,19.03s13.23,23.81,32.85,32.94
		c19.63,9.13,21.08,11.43,19.11,32.77c-1.96,21.33,0,27.65,11.95,44.8c11.95,17.15,12.71,21.08,0,39.08
		c-12.71,18.01-13.91,22.7-11.95,44.8c1.96,22.1,0.77,23.64-19.11,32.85c-19.88,9.22-23.72,13.06-32.85,32.85
		s-11.43,20.99-32.85,19.11s-27.56,0-44.8,11.86s-21.08,12.71-39.08,0c-8.89-8.04-20.43-12.54-32.43-12.63
		c-12.29,0-26.2,3.5-33.37-0.6c-9.81-5.72-12.46-26.37-24.32-38.14c-11.86-11.78-32.6-14.68-38.14-24.23
		c-5.55-9.56,2.3-29.01-2.05-45.14s-20.82-28.84-20.82-40.19C86.63,180.43,89.94,173.63,94.89,168.11z"/>
	<path id="Shape_1_" class="st0" d="M256,315.73c70.69,0,128-57.31,128-128s-57.31-128-128-128s-128,57.31-128,128
		S185.31,315.73,256,315.73z M256,76.8c61.27,0,110.93,49.67,110.93,110.93S317.27,298.67,256,298.67S145.07,249,145.07,187.73
		c0-29.42,11.69-57.64,32.49-78.44S226.58,76.8,256,76.8z"/>
	<path id="Shape_2_" class="st0" d="M196.69,215.3c4.55-0.23,8.11-3.98,8.11-8.53c-0.4-15.12,5.54-29.73,16.38-40.28
		c12.89-12.8,28.07-16.21,46.76-19.37c12.9-2.22,25.22-6.97,36.27-13.99c11.09,42.67-9.13,95.57-51.2,109.57
		c-9.86,3.25-20.17,4.94-30.55,5.03c12.38-23.09,29.9-43.03,51.2-58.28c1.84-1.33,3.07-3.34,3.42-5.58c0.35-2.24-0.2-4.53-1.54-6.36
		c-2.77-3.77-8.06-4.61-11.86-1.88c-27.66,19.17-49.29,45.8-62.38,76.8c-0.88,2.47-0.57,5.2,0.82,7.42c1.4,2.21,3.74,3.66,6.34,3.93
		c44.63,4.78,84.74-13.31,104.62-56.32c13.31-28.71,14.6-61.55,3.58-91.22c-0.98-2.43-3.02-4.28-5.53-5.01
		c-2.51-0.73-5.23-0.27-7.36,1.25c-11.34,8.87-24.66,14.87-38.83,17.49c-20.91,3.5-39.51,7.77-55.98,24.06
		c-14.17,13.96-21.87,33.2-21.25,53.08c0.09,2.28,1.09,4.43,2.77,5.97C192.19,214.61,194.42,215.41,196.69,215.3L196.69,215.3z"/>
</g>
</svg>
