<?xml version="1.0" encoding="utf-8"?>
<!-- Generator: Adobe Illustrator 24.0.1, SVG Export Plug-In . SVG Version: 6.00 Build 0)  -->
<svg version="1.1" id="Layer_1" xmlns="http://www.w3.org/2000/svg" xmlns:xlink="http://www.w3.org/1999/xlink" x="0px" y="0px"
	 viewBox="0 0 512 512" style="enable-background:new 0 0 512 512;" xml:space="preserve">
<style type="text/css">
	.st0{fill:#FFFFFF;}
</style>
<path class="st0" d="M123.25,176.75c29.09,0,52.75-23.66,52.75-52.75c0-29.09-23.66-52.75-52.75-52.75
	C94.16,71.25,70.5,94.91,70.5,124S94.16,176.75,123.25,176.75z M123.25,91.25c18.06,0,32.75,14.69,32.75,32.75
	s-14.69,32.75-32.75,32.75S90.5,142.06,90.5,124S105.19,91.25,123.25,91.25z"/>
<path class="st0" d="M344.25,181.75c-22.1,0-43.43,7.69-60.5,21.27v-6.27c0-5.52-4.48-10-10-10H204c-5.52,0-10,4.48-10,10v234
	c0,5.52,4.48,10,10,10h73.5c5.52,0,10-4.48,10-10V295.69c0-16.68,13.57-30.25,30.25-30.25S348,279.01,348,295.69v135.06
	c0,5.52,4.48,10,10,10h73.5c5.52,0,10-4.48,10-10V279C441.5,225.38,397.87,181.75,344.25,181.75z M421.5,420.75H368V295.69
	c0-27.71-22.54-50.25-50.25-50.25c-27.71,0-50.25,22.54-50.25,50.25v125.06H214v-214h49.75v21.01c0,4.33,2.78,8.16,6.9,9.51
	c4.11,1.34,8.62-0.12,11.18-3.61c14.59-19.98,37.92-31.91,62.43-31.91c42.59,0,77.25,34.65,77.25,77.25V420.75z"/>
<path class="st0" d="M86.5,186.75c-5.52,0-10,4.48-10,10v234c0,5.52,4.48,10,10,10H160c5.52,0,10-4.48,10-10v-234
	c0-5.52-4.48-10-10-10H86.5z M150,420.75H96.5v-214H150V420.75z"/>
</svg>
