<?xml version="1.0" encoding="utf-8"?>
<!-- Generator: Adobe Illustrator 24.0.1, SVG Export Plug-In . SVG Version: 6.00 Build 0)  -->
<svg version="1.1" id="Layer_1" xmlns="http://www.w3.org/2000/svg" xmlns:xlink="http://www.w3.org/1999/xlink" x="0px" y="0px"
	 viewBox="0 0 512 512" style="enable-background:new 0 0 512 512;" xml:space="preserve">
<style type="text/css">
	.st0{fill:#FFFFFF;}
</style>
<g>
	<g>
		<path class="st0" d="M503.98,97.27c4.43,0,8.02-3.59,8.02-8.02V46.5c0-23.28-18.94-42.22-42.22-42.22H196.14
			c-23.28,0-42.22,18.94-42.22,42.22v17.64H42.22C18.94,64.13,0,83.07,0,106.35v171.02c0,23.28,18.94,42.22,42.22,42.22h17.64v77.49
			c0,6.64,8.02,10.43,13.15,6.16l100.38-83.65h142.47c21.45,0,39.19-16.08,41.86-36.81l72.72,60.6c5.13,4.27,13.15,0.48,13.15-6.16
			v-77.49h26.19c23.28,0,42.22-18.94,42.22-42.22v-94.06c0-4.43-3.59-8.02-8.02-8.02c-4.43,0-8.02,3.59-8.02,8.02v94.06
			c0,14.44-11.75,26.19-26.19,26.19h-34.2c-4.43,0-8.02,3.59-8.02,8.02v68.4l-68.94-57.45c-0.17-0.14-0.36-0.28-0.54-0.4v-45.28
			h43.29c4.43,0,8.02-3.59,8.02-8.02s-3.59-8.02-8.02-8.02h-43.29v-52.38h9.09c4.43,0,8.02-3.59,8.02-8.02s-3.59-8.02-8.02-8.02
			h-9.09v-26.19c0-23.28-18.94-42.22-42.22-42.22h-145.9V46.49c0-14.44,11.75-26.19,26.19-26.19h273.64
			c14.44,0,26.19,11.75,26.19,26.19v42.76C495.97,93.68,499.55,97.27,503.98,97.27z M315.86,80.17c14.44,0,26.19,11.75,26.19,26.19
			v171.02c0,14.44-11.75,26.19-26.19,26.19H170.49c-1.88,0-3.69,0.66-5.13,1.86l-89.46,74.55v-68.39c0-4.43-3.59-8.02-8.02-8.02
			H42.22c-14.44,0-26.19-11.75-26.19-26.19V106.35c0-14.44,11.75-26.19,26.19-26.19H315.86z"/>
	</g>
</g>
<g>
	<g>
		<path class="st0" d="M435.57,64.13h-76.96c-4.43,0-8.02,3.59-8.02,8.02s3.59,8.02,8.02,8.02h76.96c4.43,0,8.02-3.59,8.02-8.02
			S440,64.13,435.57,64.13z"/>
	</g>
</g>
<g>
	<g>
		<path class="st0" d="M435.57,132.54h-42.76c-4.43,0-8.02,3.59-8.02,8.02c0,4.43,3.59,8.02,8.02,8.02h42.76
			c4.43,0,8.02-3.59,8.02-8.02S440,132.54,435.57,132.54z"/>
	</g>
</g>
<g>
	<g>
		<path class="st0" d="M102.08,166.75c-13.85,0-25.12,11.27-25.12,25.12s11.27,25.12,25.12,25.12s25.12-11.27,25.12-25.12
			C127.2,178.01,115.93,166.75,102.08,166.75z M102.08,200.95c-5.01,0-9.09-4.08-9.09-9.09s4.08-9.09,9.09-9.09s9.09,4.08,9.09,9.09
			S107.09,200.95,102.08,200.95z"/>
	</g>
</g>
<g>
	<g>
		<path class="st0" d="M179.04,166.75c-13.85,0-25.12,11.27-25.12,25.12s11.27,25.12,25.12,25.12s25.12-11.27,25.12-25.12
			C204.16,178.01,192.89,166.75,179.04,166.75z M179.04,200.95c-5.01,0-9.09-4.08-9.09-9.09s4.08-9.09,9.09-9.09
			s9.09,4.08,9.09,9.09C188.12,196.88,184.05,200.95,179.04,200.95z"/>
	</g>
</g>
<g>
	<g>
		<path class="st0" d="M256,166.75c-13.85,0-25.12,11.27-25.12,25.12s11.27,25.12,25.12,25.12c13.85,0,25.12-11.27,25.12-25.12
			C281.12,178.01,269.85,166.75,256,166.75z M256,200.95c-5.01,0-9.09-4.08-9.09-9.09s4.08-9.09,9.09-9.09
			c5.01,0,9.09,4.08,9.09,9.09S261.01,200.95,256,200.95z"/>
	</g>
</g>
<g>
	<g>
		<path class="st0" d="M183.32,466.04H144.3v-64.67c0-11.49-9.35-20.84-20.84-20.84s-20.84,9.35-20.84,20.84v85.51
			c0,11.49,9.35,20.84,20.84,20.84h59.86c11.49,0,20.84-9.35,20.84-20.84C204.16,475.39,194.81,466.04,183.32,466.04z
			 M183.32,491.69h-59.86c-2.65,0-4.81-2.16-4.81-4.81v-85.51c0-2.65,2.16-4.81,4.81-4.81s4.81,2.16,4.81,4.81v72.68
			c0,4.43,3.59,8.02,8.02,8.02h47.03c2.65,0,4.81,2.16,4.81,4.81S185.97,491.69,183.32,491.69z"/>
	</g>
</g>
<g>
	<g>
		<path class="st0" d="M230.35,380.53c-11.49,0-20.84,9.35-20.84,20.84v85.51c0,11.49,9.35,20.84,20.84,20.84
			s20.84-9.35,20.84-20.84v-85.51C251.19,389.88,241.84,380.53,230.35,380.53z M235.16,486.88c0,2.65-2.16,4.81-4.81,4.81
			s-4.81-2.16-4.81-4.81v-85.51c0-2.65,2.16-4.81,4.81-4.81s4.81,2.16,4.81,4.81V486.88z"/>
	</g>
</g>
<g>
	<g>
		<path class="st0" d="M357.8,382.02c-10.67-4.27-22.83,0.94-27.09,11.61l-14.85,37.13l-14.85-37.13
			c-4.27-10.67-16.42-15.87-27.09-11.61c-10.54,4.21-15.84,16.53-11.61,27.09l34.21,85.51c3.18,7.96,10.78,13.1,19.35,13.1
			s16.17-5.14,19.35-13.1l34.2-85.51C373.64,398.55,368.34,386.23,357.8,382.02z M354.53,403.16l-34.21,85.51
			c-1.58,3.95-7.35,3.95-8.93,0l-34.21-85.51c-1.03-2.57,0.4-5.55,3.03-6.38c2.36-0.74,4.98,0.51,5.9,2.8l22.3,55.74
			c2.63,6.58,12.26,6.58,14.89,0l22.29-55.74c0.87-2.18,3.28-3.43,5.56-2.9C353.98,397.35,355.61,400.46,354.53,403.16z"/>
	</g>
</g>
<g>
	<g>
		<path class="st0" d="M448.4,466.04h-30.46v-1.07h13.36c11.49,0,20.84-9.35,20.84-20.84s-9.35-20.84-20.84-20.84h-13.36v-1.07
			h30.46c11.49,0,20.84-9.35,20.84-20.84s-9.35-20.84-20.84-20.84h-51.31c-11.49,0-20.84,9.35-20.84,20.84v85.51
			c0,11.49,9.35,20.84,20.84,20.84h51.31c11.49,0,20.84-9.35,20.84-20.84C469.24,475.39,459.89,466.04,448.4,466.04z M448.4,491.69
			h-51.31c-2.65,0-4.81-2.16-4.81-4.81v-85.51c0-2.65,2.16-4.81,4.81-4.81h51.31c2.65,0,4.81,2.16,4.81,4.81s-2.16,4.81-4.81,4.81
			h-38.48c-4.43,0-8.02,3.59-8.02,8.02v17.1c0,4.43,3.59,8.02,8.02,8.02h21.38c2.65,0,4.81,2.16,4.81,4.81s-2.16,4.81-4.81,4.81
			h-21.38c-4.43,0-8.02,3.59-8.02,8.02v17.1c0,4.43,3.59,8.02,8.02,8.02h38.48c2.65,0,4.81,2.16,4.81,4.81
			S451.05,491.69,448.4,491.69z"/>
	</g>
</g>
</svg>
