<?xml version="1.0" encoding="utf-8"?>
<!-- Generator: Adobe Illustrator 24.0.1, SVG Export Plug-In . SVG Version: 6.00 Build 0)  -->
<svg version="1.1" id="Layer_1" xmlns="http://www.w3.org/2000/svg" xmlns:xlink="http://www.w3.org/1999/xlink" x="0px" y="0px"
	 viewBox="0 0 512 512" style="enable-background:new 0 0 512 512;" xml:space="preserve">
<style type="text/css">
	.st0{fill:#FFFFFF;}
</style>
<g>
	<path class="st0" d="M496,376h-48V192c-0.02-22.08-17.92-39.98-40-40h-47c-0.33,0-0.67,0.03-1,0.07V56c0-4.42-3.58-8-8-8h-48
		c-4.42,0-8,3.58-8,8v96h-8v-48c0-4.42-3.58-8-8-8h-48c-4.42,0-8,3.58-8,8v48h-8v-24c0-4.42-3.58-8-8-8h-48c-4.42,0-8,3.58-8,8v24
		h-48c-22.08,0.02-39.98,17.92-40,40v184H16c-4.42,0-8,3.58-8,8v32c0.02,22.08,17.92,39.98,40,40h416c22.08-0.02,39.98-17.92,40-40
		v-32C504,379.58,500.42,376,496,376z M312,64h32v240h-32V64z M288,168h8v8h-8V168z M288,192h8v112h-8V192z M240,112h32v192h-32V112
		z M216,168h8v8h-8V168z M216,192h8v112h-8V192z M168,136h32v168h-32V136z M376,320c4.42,0,8-3.58,8-8s-3.58-8-8-8h-16V192h48v160
		H104V192h48v112h-16c-4.42,0-8,3.58-8,8s3.58,8,8,8H376z M80,192c0.02-13.25,10.75-23.98,24-24h48v8H96c-4.42,0-8,3.58-8,8v176
		c0,4.42,3.58,8,8,8h320c4.42,0,8-3.58,8-8V184c0-4.42-3.58-8-8-8h-56v-8.07c0.33,0.04,0.67,0.07,1,0.07h47
		c13.25,0.02,23.98,10.75,24,24v184H80V192z M293.75,392l-4,16h-67.5l-4-16H293.75z M488,416c-0.02,13.25-10.75,23.98-24,24H48
		c-13.25-0.02-23.98-10.75-24-24v-24h177.75l6.49,25.94c0.89,3.56,4.09,6.06,7.76,6.06h80c3.67,0,6.87-2.5,7.76-6.06l6.49-25.94H488
		V416z"/>
	<path class="st0" d="M88,400H40c-4.42,0-8,3.58-8,8s3.58,8,8,8h48c4.42,0,8-3.58,8-8S92.42,400,88,400z"/>
	<path class="st0" d="M120,400h-8c-4.42,0-8,3.58-8,8s3.58,8,8,8h8c4.42,0,8-3.58,8-8S124.42,400,120,400z"/>
</g>
</svg>
