<?xml version="1.0" encoding="utf-8"?>
<!-- Generator: Adobe Illustrator 24.0.1, SVG Export Plug-In . SVG Version: 6.00 Build 0)  -->
<svg version="1.1" id="Capa_1" xmlns="http://www.w3.org/2000/svg" xmlns:xlink="http://www.w3.org/1999/xlink" x="0px" y="0px"
	 viewBox="0 0 512 512" style="enable-background:new 0 0 512 512;" xml:space="preserve">
<style type="text/css">
	.st0{fill:#FFFFFF;}
</style>
<g>
	<g>
		<path class="st0" d="M446.98,201.91L277.32,32.25c-17.54-17.54-46.08-17.54-63.62,0c-15.77,15.77-17.13,39.81-5.48,56.99
			l-0.24,1.18c-12.23,61.17-42.01,116.81-86.12,160.92l-77.82,77.82c-17.58,17.58-17.58,46.04,0,63.62l42.41,42.41
			c17.58,17.58,46.04,17.58,63.62,0l10.6-10.6l74.23,74.23c17.58,17.58,46.04,17.58,63.62,0c17.54-17.54,17.54-46.08,0-63.62
			l-31.81-31.81l10.6-10.6c17.58-17.58,17.58-46.04,0-63.62l-7.21-7.21c35.45-24.82,75.71-42.1,118.7-50.7l1.2-0.24
			c17.55,11.85,41.54,9.95,56.97-5.48h0C464.52,247.99,464.52,219.46,446.98,201.91z M128.87,413.98c-5.86,5.86-15.35,5.86-21.21,0
			l-42.41-42.41c-5.86-5.86-5.86-15.35,0-21.21l74.22-74.23l63.62,63.62C195.83,347.02,136.31,406.54,128.87,413.98z M277.32,456.4
			c5.85,5.85,5.85,15.36,0,21.21c-5.85,5.85-15.36,5.85-21.21,0l-74.23-74.23l21.21-21.21L277.32,456.4z M224.3,360.96
			c4.51-4.51,11.26-11.41,21.91-20.51l9.9,9.91c5.86,5.86,5.86,15.35,0,21.21l-10.6,10.6L224.3,360.96z M224.93,319.19l-64.9-64.9
			c34.78-40.16,59.68-87.56,73.01-139.06L364,246.18C312.5,259.5,265.1,284.41,224.93,319.19z M425.77,244.33
			c-5.86,5.86-15.35,5.86-21.21,0L234.9,74.67c-5.86-5.86-5.86-15.35,0-21.21s15.35-5.86,21.21,0l169.66,169.66
			C431.61,228.96,431.61,238.48,425.77,244.33z"/>
	</g>
</g>
<g>
	<g>
		<path class="st0" d="M150.07,329.15c-5.85-5.86-15.35-5.86-21.21,0l-21.21,21.21c-5.86,5.86-5.86,15.35,0,21.21
			c5.86,5.86,15.35,5.86,21.21,0l21.21-21.21C155.93,344.51,155.93,335.01,150.07,329.15z"/>
	</g>
</g>
<g>
	<g>
		<path class="st0" d="M346.19,0c-8.28,0-15,6.71-15,15v29.99c0,8.28,6.71,15,15,15s15-6.71,15-15V15C361.19,6.71,354.47,0,346.19,0
			z"/>
	</g>
</g>
<g>
	<g>
		<path class="st0" d="M466.16,119.97h-29.99c-8.28,0-15,6.71-15,15s6.71,15,15,15h29.99c8.28,0,15-6.71,15-15
			S474.44,119.97,466.16,119.97z"/>
	</g>
</g>
<g>
	<g>
		<path class="st0" d="M446.77,34.38c-5.86-5.86-15.35-5.86-21.21,0l-29.99,29.99c-5.86,5.86-5.86,15.35,0,21.21
			c5.86,5.86,15.35,5.86,21.21,0l29.99-29.99C452.62,49.73,452.62,40.24,446.77,34.38z"/>
	</g>
</g>
</svg>
