<?xml version="1.0" encoding="utf-8"?>
<!-- Generator: Adobe Illustrator 24.0.1, SVG Export Plug-In . SVG Version: 6.00 Build 0)  -->
<svg version="1.1" id="Capa_1" xmlns="http://www.w3.org/2000/svg" xmlns:xlink="http://www.w3.org/1999/xlink" x="0px" y="0px"
	 viewBox="0 0 529.39 529.39" style="enable-background:new 0 0 529.39 529.39;" xml:space="preserve">
<style type="text/css">
	.st0{fill:#FFFFFF;}
</style>
<g>
	<g>
		<path class="st0" d="M250.29,181.25c6.89,0,13.81-0.79,20.59-2.37c48.66-11.32,79.04-60.11,67.73-108.77
			C329.01,28.83,292.75,0,250.43,0c-6.89,0-13.82,0.81-20.59,2.37c-48.66,11.31-79.04,60.11-67.73,108.77
			C171.7,152.41,207.97,181.25,250.29,181.25L250.29,181.25L250.29,181.25z M189.3,52.6c10.16-16.31,26.05-27.69,44.77-32.04
			c5.38-1.25,10.89-1.89,16.36-1.89c30.43,0,56.85,18.82,67.24,46.72L178.84,97.66C177.26,81.94,180.81,66.23,189.3,52.6z
			 M183.06,115.86l138.82-32.28c3.5,35.38-19.68,68.84-55.23,77.1c-5.39,1.26-10.89,1.89-16.35,1.89h0
			C219.87,162.57,193.44,143.75,183.06,115.86z"/>
		<path class="st0" d="M367.01,436.68c3.55-10.49,3.51-23.79-0.12-39.55l-34.78-207.96c-0.04-0.19-0.07-0.38-0.11-0.57
			c-0.81-3.46-1.98-6.94-3.5-10.36c-1.19-2.7-3.6-4.67-6.47-5.32c-2.89-0.65-5.9,0.08-8.14,2.01
			c-11.41,9.77-24.64,16.45-39.31,19.86c-14.52,3.38-29.66,3.21-44.04-0.47c-2.85-0.73-5.89-0.07-8.18,1.78
			c-2.29,1.85-3.58,4.68-3.47,7.62c0.14,3.7,0.62,7.36,1.44,10.85c0.04,0.18,0.1,0.37,0.15,0.57L281,417.1
			c9.1,38.76,29.27,46.92,44.62,46.92c0.63,0,1.29-0.09,1.94-0.12l13.55,58.27c1,4.31,4.84,7.22,9.09,7.22
			c0.7,0,1.41-0.08,2.12-0.25c5.02-1.17,8.15-6.18,6.98-11.21l-13.55-58.27C356.11,455.1,363.42,447.32,367.01,436.68z
			 M349.32,430.7c-2.48,7.32-7.78,11.7-16.69,13.77c-2.48,0.57-4.83,0.86-7.01,0.86c-4.67,0-18.88,0-26.49-32.76
			c-0.05-0.19-0.1-0.38-0.15-0.56l-59.03-196.96c12.92,1.59,26.1,0.88,38.87-2.08c12.72-2.95,24.88-8.17,35.79-15.29l33.92,202.81
			c0.03,0.19,0.07,0.38,0.11,0.57C351.53,413.52,351.76,423.49,349.32,430.7z"/>
	</g>
</g>
</svg>
