<?xml version="1.0" encoding="utf-8"?>
<!-- Generator: Adobe Illustrator 24.0.1, SVG Export Plug-In . SVG Version: 6.00 Build 0)  -->
<svg version="1.1" id="Layer_1" xmlns="http://www.w3.org/2000/svg" xmlns:xlink="http://www.w3.org/1999/xlink" x="0px" y="0px"
	 viewBox="0 0 512 512" style="enable-background:new 0 0 512 512;" xml:space="preserve">
<style type="text/css">
	.st0{fill:#FFFFFF;}
</style>
<g id="XMLID_996_">
	<g id="XMLID_41_">
		<path id="XMLID_4218_" class="st0" d="M312.89,143.38c1.95,1.95,4.51,2.93,7.07,2.93s5.12-0.98,7.07-2.93
			c3.9-3.9,3.9-10.24,0-14.14l-0.14-0.13c-3.9-3.9-10.24-3.9-14.14,0c-3.9,3.9-3.9,10.24,0,14.14L312.89,143.38z"/>
		<path id="XMLID_4221_" class="st0" d="M474.22,238l34.86-34.85c2.86-2.86,3.71-7.16,2.17-10.9c-1.55-3.74-5.19-6.17-9.24-6.17
			h-72.25c-9.44-38.66-29.27-73.89-57.6-102.22C330.98,42.68,276.23,20,218,20S105.03,42.68,63.85,83.85
			C22.68,125.03,0,179.77,0,238s22.68,112.98,63.85,154.15c12.24,12.24,25.7,22.84,40.07,31.7L73.8,477.07
			c-1.75,3.1-1.73,6.89,0.06,9.96c1.79,3.07,5.08,4.96,8.64,4.96H134c3.6,0,6.93-1.94,8.7-5.07l21.3-37.64
			c17.43,4.42,35.54,6.71,53.99,6.71s36.56-2.29,53.99-6.71l21.3,37.64c1.77,3.14,5.1,5.07,8.7,5.07h51.5
			c3.56,0,6.85-1.89,8.64-4.96c1.79-3.07,1.82-6.87,0.06-9.96l-30.13-53.23c14.38-8.86,27.83-19.46,40.07-31.7
			c28.32-28.32,48.15-63.57,57.6-102.22H502c4.04,0,7.69-2.44,9.24-6.17c1.55-3.74,0.69-8.04-2.17-10.9L474.22,238z M455.93,228
			h-69.79l21.93-21.93h69.79L455.93,228z M128.17,472H99.65l21.77-38.45c7.47,3.7,15.14,6.97,22.99,9.77L128.17,472z M336.35,472
			h-28.52l-16.23-28.68c7.85-2.81,15.52-6.08,22.99-9.77L336.35,472z M358.01,378.01c-13.21,13.21-27.96,24.31-43.85,33.16
			c-0.2,0.1-0.39,0.18-0.59,0.29c-0.12,0.07-0.23,0.15-0.35,0.22c-12.18,6.7-25.02,12.08-38.34,16.06c-0.52,0.1-1.04,0.26-1.55,0.45
			C255.58,433.33,236.99,436,218,436s-37.58-2.67-55.33-7.81c-0.51-0.19-1.03-0.35-1.55-0.45c-13.32-3.97-26.16-9.36-38.34-16.06
			c-0.12-0.07-0.23-0.15-0.35-0.22c-0.19-0.11-0.39-0.2-0.59-0.29c-15.88-8.85-30.64-19.95-43.85-33.16
			C40.6,340.61,20,290.89,20,238S40.6,135.39,77.99,97.99S165.11,40,218,40s102.61,20.6,140.01,57.99
			c24.57,24.57,42.1,54.84,51.1,88.08h-5.18c-2.65,0-5.2,1.05-7.07,2.93l-26.54,26.54c-2.68-18.18-8.56-35.86-17.43-51.94
			c-2.67-4.84-8.75-6.59-13.59-3.92c-4.83,2.67-6.59,8.75-3.92,13.59c9.49,17.19,14.8,35.89,16.15,54.73h-44.09
			c-2.23-20.26-11.18-39.02-25.8-53.64c-17-17-39.6-26.36-63.64-26.36s-46.64,9.36-63.64,26.36c-17,17-26.36,39.6-26.36,63.64
			s9.36,46.64,26.36,63.64c17,17,39.6,26.36,63.64,26.36s46.64-9.36,63.64-26.36c14.62-14.62,23.57-33.38,25.8-53.64h44.05
			c-2.39,31.26-15.58,61.6-38.73,84.75C287.44,358.06,253.79,372,218,372s-69.44-13.94-94.75-39.25C97.94,307.44,84,273.79,84,238
			s13.94-69.44,39.25-94.75c41.98-41.98,107.56-51.28,159.48-22.62c4.83,2.67,10.92,0.91,13.59-3.92
			c2.67-4.83,0.91-10.92-3.92-13.59C263.75,87.3,230.02,81,197.42,85.37c-33.68,4.52-64.23,19.64-88.32,43.73
			C80.02,158.19,64,196.87,64,238s16.02,79.81,45.1,108.89C138.19,375.98,176.87,392,218,392s79.81-16.02,108.89-45.11
			c23.64-23.63,38.63-53.48,43.46-86.4L396.85,287c1.88,1.88,4.42,2.93,7.07,2.93h5.18C400.1,323.16,382.57,353.44,358.01,378.01z
			 M250.66,219.14c-2.76-4.78-8.88-6.42-13.66-3.66l-24,13.86c-3.09,1.79-5,5.09-5,8.66s1.91,6.87,5,8.66l24,13.86
			c1.57,0.91,3.29,1.34,4.99,1.34c3.46,0,6.82-1.79,8.67-5c1.62-2.81,1.72-6.08,0.55-8.86h36.07c-2.12,14.9-8.96,28.66-19.79,39.5
			l0,0C254.28,300.72,236.7,308,218,308s-36.28-7.28-49.5-20.5C155.28,274.28,148,256.7,148,238s7.28-36.28,20.5-49.5
			c13.22-13.22,30.8-20.5,49.5-20.5s36.28,7.28,49.5,20.5c10.83,10.83,17.67,24.59,19.79,39.5h-36.07
			C252.38,225.22,252.28,221.95,250.66,219.14z M408.07,269.93L386.14,248h69.79l21.93,21.93H408.07z"/>
	</g>
</g>
</svg>
