<?xml version="1.0" encoding="utf-8"?>
<!-- Generator: Adobe Illustrator 24.0.1, SVG Export Plug-In . SVG Version: 6.00 Build 0)  -->
<svg version="1.1" id="Capa_1" xmlns="http://www.w3.org/2000/svg" xmlns:xlink="http://www.w3.org/1999/xlink" x="0px" y="0px"
	 viewBox="0 0 480.21 480.21" style="enable-background:new 0 0 480.21 480.21;" xml:space="preserve">
<style type="text/css">
	.st0{fill:#FFFFFF;}
</style>
<g>
	<g>
		<path class="st0" d="M372.19,256.19l-51.93-66.1c18.44-18.9,29.57-43.74,31.42-70.08h80.41v8.8c-18.61,3.82-31.98,20.2-32,39.2
			c0.01,22.09,17.92,40,40.01,39.99s40-17.92,39.99-40.01c0-19.01-13.38-35.38-32-39.18v-16.8c0-4.42-3.58-8-8-8h-88.41
			c-1.56-22.17-9.73-43.35-23.44-60.84l11.16-11.16h94.16c4.42,12.5,18.13,19.05,30.63,14.63c12.5-4.42,19.05-18.13,14.63-30.63
			S460.69-3.04,448.19,1.38c-6.83,2.42-12.21,7.79-14.63,14.63h-97.47c-2.12,0-4.16,0.84-5.66,2.34l-12.92,12.92
			c-44.46-42.82-115.21-41.49-158.02,2.97c-18.2,18.9-29.17,43.59-30.99,69.76H61.3L35.15,45.18c11.69-6.15,16.18-20.62,10.03-32.31
			S24.56-3.31,12.87,2.85C1.18,9-3.31,23.46,2.84,35.15c3.23,6.14,8.98,10.58,15.74,12.16l30.2,67.95c1.29,2.89,4.15,4.75,7.31,4.74
			h72.41c1.84,26.04,12.76,50.61,30.86,69.42l-67.54,67.54c-43.67-6.54-84.37,23.55-90.92,67.22s23.55,84.37,67.22,90.92
			c1.32,0.2,2.64,0.36,3.97,0.49v40.41c0,4.42,3.58,8,8,8h73.47c4.42,12.5,18.13,19.05,30.63,14.63s19.05-18.13,14.63-30.63
			s-18.13-19.05-30.63-14.63c-6.84,2.42-12.21,7.79-14.63,14.63H88.09V415.6c43.94-4.38,76.01-43.55,71.63-87.49
			c-2.96-29.73-22.26-55.33-50.03-66.37l61.6-61.6c40.12,31.59,96.58,31.81,136.95,0.55l44.38,56.5
			c-61.29,8.55-104.04,65.16-95.49,126.44c8.55,61.29,65.16,104.04,126.44,95.49c61.29-8.55,104.04-65.16,95.49-126.44
			C471.57,298.85,426.5,258.17,372.19,256.19z M464.09,168.01c0,13.26-10.74,24-24,24s-24-10.74-24-24s10.74-24,24-24
			S464.09,154.75,464.09,168.01z M456.09,16.01c4.42,0,8,3.58,8,8s-3.58,8-8,8s-8-3.58-8-8S451.67,16.01,456.09,16.01z M24.09,32.01
			c-4.42,0-8-3.58-8-8s3.58-8,8-8s8,3.58,8,8S28.51,32.01,24.09,32.01z M176.09,448.01c4.42,0,8,3.58,8,8s-3.58,8-8,8s-8-3.58-8-8
			S171.68,448.01,176.09,448.01z M112.09,391.35c-19.77,11.55-44.23,11.55-64,0v-15.34c0-17.67,14.33-32,32-32s32,14.33,32,32
			V391.35z M64.09,312.01c0-8.84,7.16-16,16-16s16,7.16,16,16s-7.16,16-16,16S64.09,320.84,64.09,312.01z M128.09,293.54
			c10.34,11.73,16.03,26.83,16,42.47c0,15.55-5.69,30.55-16,42.19v-2.19c-0.01-17.49-9.53-33.59-24.86-42.02
			c12.2-12.78,11.73-33.04-1.05-45.24c-12.78-12.2-33.04-11.73-45.24,1.05c-11.8,12.36-11.8,31.82,0,44.19
			c-15.32,8.43-24.84,24.54-24.85,42.02v2.19c-23.38-26.51-20.84-66.95,5.67-90.33C64.27,264.49,104.71,267.02,128.09,293.54z
			 M296.09,189.8c-33.4,24.25-78.6,24.25-112,0v-19.39c0-14.58,11.82-26.4,26.4-26.4h17.76l-11.61,29.02
			c-1.19,2.97-0.49,6.37,1.78,8.63l16,16c3.12,3.12,8.19,3.12,11.31,0l16-16c2.27-2.26,2.96-5.66,1.78-8.63l-11.6-29.02h17.78
			c14.58,0,26.4,11.82,26.4,26.4L296.09,189.8L296.09,189.8z M241.24,59.89c-0.3,0.5-0.54,1.03-0.73,1.58
			c-4.05,12.14-25.9,16.74-39.98,18.07c2.15-26.81,14.76-39.54,39.56-39.54c22.7,0,35.2,10.74,38.78,33.14l-26.66-16
			C248.42,54.87,243.51,56.1,241.24,59.89z M251.12,75.16l28.59,17.16c-3.21,19.58-27.34,35.69-39.62,35.69
			c-17.84-3.04-32.69-15.41-38.89-32.42C214.9,94.46,239.63,90.31,251.12,75.16z M246.7,174.08l-6.61,6.62l-6.61-6.62l6.61-16.54
			L246.7,174.08z M275,128.38c12.48-9.82,20.16-24.51,21.1-40.37c0-52.9-30.46-64-56-64s-56,11.1-56,64
			c0.93,15.86,8.61,30.57,21.1,40.39c-21.21,2.61-37.13,20.64-37.1,42.01v4.86c-35.07-39.76-31.26-100.43,8.5-135.5
			s100.43-31.26,135.5,8.5c32,36.28,32,90.71,0,127v-4.86C312.14,149.03,296.21,130.99,275,128.38z M424.09,445.8
			c-33.4,24.25-78.6,24.25-112,0v-19.39c0-14.58,11.82-26.4,26.4-26.4h17.76l-11.61,29.02c-1.19,2.97-0.49,6.37,1.78,8.63l16,16
			c3.12,3.12,8.19,3.12,11.31,0l16-16c2.27-2.26,2.96-5.66,1.78-8.63l-11.6-29.02h17.78c14.58,0,26.4,11.82,26.4,26.4V445.8z
			 M379.12,331.16L379.12,331.16l28.59,17.15c-3.21,19.59-27.34,35.7-39.62,35.7c-17.84-3.04-32.69-15.41-38.89-32.42
			C342.9,350.46,367.63,346.31,379.12,331.16z M328.53,335.54L328.53,335.54c2.14-26.81,14.76-39.54,39.56-39.54
			c22.7,0,35.2,10.74,38.78,33.14l-26.66-16c-3.79-2.27-8.7-1.04-10.98,2.74c-0.3,0.5-0.54,1.03-0.73,1.58
			C364.46,329.61,342.61,334.21,328.53,335.54z M374.7,430.08l-6.61,6.62l-6.61-6.62l6.61-16.54L374.7,430.08z M440.09,431.29v-4.89
			c0.04-21.38-15.88-39.42-37.1-42.03c12.48-9.82,20.16-24.51,21.1-40.37c0-52.9-30.46-64-56-64s-56,11.1-56,64
			c0.93,15.86,8.61,30.57,21.1,40.39c-21.21,2.61-37.13,20.64-37.1,42.01v4.86c-34.99-39.8-31.09-100.42,8.71-135.41
			s100.42-31.09,135.41,8.71c15.42,17.53,23.91,40.09,23.89,63.43C464.09,391.33,455.55,413.84,440.09,431.29z"/>
	</g>
</g>
</svg>
