<?xml version="1.0" encoding="utf-8"?>
<!-- Generator: Adobe Illustrator 24.0.1, SVG Export Plug-In . SVG Version: 6.00 Build 0)  -->
<svg version="1.1" id="Layer_1" xmlns="http://www.w3.org/2000/svg" xmlns:xlink="http://www.w3.org/1999/xlink" x="0px" y="0px"
	 viewBox="0 0 512 512" style="enable-background:new 0 0 512 512;" xml:space="preserve">
<style type="text/css">
	.st0{fill:#FFFFFF;}
</style>
<path class="st0" d="M486.16,19h-374.6c-14.25,0-25.84,11.59-25.84,25.84v39.23H25.84C11.59,84.07,0,95.67,0,109.92v332.54
	c0,27.64,22.39,50.14,50,50.34h0.1c0.09,0,0.17,0.01,0.26,0.01h265.31c4.14,0,7.5-3.36,7.5-7.5c0-4.14-3.36-7.5-7.5-7.5H86.18
	c8.98-9.1,14.54-21.59,14.54-35.36V267.07c0-4.14-3.36-7.5-7.5-7.5c-4.14,0-7.5,3.36-7.5,7.5v175.39
	c0,19.43-15.76,35.25-35.17,35.35c-0.06,0-0.12-0.01-0.19-0.01c-19.5,0-35.36-15.86-35.36-35.34V109.92
	c0-5.98,4.86-10.84,10.84-10.84h59.88v140c0,4.14,3.36,7.5,7.5,7.5c4.14,0,7.5-3.36,7.5-7.5V44.84c0-5.98,4.86-10.84,10.84-10.84
	h374.6c5.98,0,10.84,4.86,10.84,10.84v397.61c0,19.5-15.86,35.36-35.36,35.36H343.67c-4.14,0-7.5,3.36-7.5,7.5
	c0,4.14,3.36,7.5,7.5,7.5h117.97c27.77,0,50.36-22.59,50.36-50.36V44.84C512,30.59,500.41,19,486.16,19z"/>
<path class="st0" d="M164.32,318.26h102.86c9.79,0,17.75-7.96,17.75-17.75V197.65c0-9.79-7.96-17.75-17.75-17.75H164.32
	c-9.79,0-17.75,7.96-17.75,17.75v102.86C146.57,310.3,154.54,318.26,164.32,318.26z M161.57,197.65c0-1.52,1.23-2.75,2.75-2.75
	h102.86c1.51,0,2.75,1.23,2.75,2.75v102.86c0,1.51-1.23,2.75-2.75,2.75H164.32c-1.52,0-2.75-1.23-2.75-2.75V197.65z"/>
<path class="st0" d="M312.19,194.91h139.2c4.14,0,7.5-3.36,7.5-7.5s-3.36-7.5-7.5-7.5h-139.2c-4.14,0-7.5,3.36-7.5,7.5
	S308.05,194.91,312.19,194.91z"/>
<path class="st0" d="M312.19,256.59h139.2c4.14,0,7.5-3.36,7.5-7.5c0-4.14-3.36-7.5-7.5-7.5h-139.2c-4.14,0-7.5,3.36-7.5,7.5
	C304.69,253.23,308.05,256.59,312.19,256.59z"/>
<path class="st0" d="M312.19,318.26h139.2c4.14,0,7.5-3.36,7.5-7.5c0-4.14-3.36-7.5-7.5-7.5h-139.2c-4.14,0-7.5,3.36-7.5,7.5
	C304.69,314.9,308.05,318.26,312.19,318.26z"/>
<path class="st0" d="M154.07,379.94h297.32c4.14,0,7.5-3.36,7.5-7.5c0-4.14-3.36-7.5-7.5-7.5H154.07c-4.14,0-7.5,3.36-7.5,7.5
	C146.57,376.58,149.93,379.94,154.07,379.94z"/>
<path class="st0" d="M154.07,441.62h297.32c4.14,0,7.5-3.36,7.5-7.5s-3.36-7.5-7.5-7.5H154.07c-4.14,0-7.5,3.36-7.5,7.5
	S149.93,441.62,154.07,441.62z"/>
<path class="st0" d="M146.77,141.53V62.28c0-1.63,0.77-2.87,2.32-3.72c1.55-0.86,3.42-1.29,5.62-1.29c2.93,0,5.17,0.53,6.72,1.59
	c1.54,1.06,3.25,3.34,5.13,6.84l23.57,45.55V62.16c0-1.63,0.77-2.85,2.32-3.66c1.54-0.81,3.42-1.22,5.62-1.22s4.07,0.41,5.62,1.22
	c1.55,0.82,2.32,2.04,2.32,3.66v79.37c0,1.55-0.8,2.77-2.38,3.66c-1.59,0.9-3.44,1.34-5.55,1.34c-4.32,0-7.37-1.67-9.16-5.01
	l-26.25-49.09v49.09c0,1.55-0.79,2.77-2.38,3.66c-1.59,0.9-3.44,1.34-5.56,1.34c-2.2,0-4.07-0.45-5.61-1.34
	C147.54,144.3,146.77,143.08,146.77,141.53z"/>
<path class="st0" d="M220.64,141.53V62.28c0-1.55,0.69-2.77,2.08-3.66c1.38-0.89,3.01-1.34,4.88-1.34h43.47
	c1.62,0,2.87,0.7,3.72,2.08c0.86,1.38,1.29,2.97,1.29,4.76c0,1.95-0.45,3.62-1.34,5.01c-0.9,1.39-2.12,2.07-3.66,2.07h-34.56v24.42
	h18.56c1.54,0,2.77,0.63,3.66,1.89c0.89,1.26,1.34,2.75,1.34,4.46c0,1.55-0.43,2.95-1.29,4.21c-0.86,1.26-2.09,1.89-3.72,1.89
	h-18.56v24.55h34.56c1.54,0,2.77,0.69,3.66,2.07c0.89,1.39,1.34,3.05,1.34,5.01c0,1.79-0.43,3.38-1.29,4.76
	c-0.85,1.39-2.1,2.07-3.72,2.07h-43.47c-1.88,0-3.5-0.45-4.88-1.34C221.34,144.3,220.64,143.08,220.64,141.53z"/>
<path class="st0" d="M284.02,63.62c0-1.71,1.1-3.2,3.3-4.46c2.2-1.26,4.48-1.89,6.84-1.89c2.93,0,4.68,1.06,5.25,3.18l19.3,66.19
	l10.38-42.5c0.73-2.93,3.34-4.4,7.81-4.4c4.4,0,6.96,1.46,7.7,4.4l10.38,42.5l19.29-66.19c0.57-2.12,2.32-3.18,5.25-3.18
	c2.36,0,4.64,0.63,6.84,1.89s3.3,2.75,3.3,4.46c0,0.49-0.08,0.98-0.24,1.46l-24.18,76.81c-1.22,3.59-4.68,5.38-10.38,5.38
	c-2.44,0-4.64-0.47-6.59-1.41c-1.95-0.93-3.14-2.26-3.54-3.97l-7.81-32.97l-7.94,32.97c-0.41,1.71-1.59,3.04-3.54,3.97
	c-1.95,0.94-4.15,1.41-6.59,1.41c-2.52,0-4.76-0.47-6.71-1.41c-1.96-0.93-3.18-2.26-3.66-3.97l-24.18-76.81
	C284.1,64.6,284.02,64.11,284.02,63.62z"/>
<path class="st0" d="M393.68,132.49c0-1.87,0.71-3.77,2.14-5.68c1.42-1.91,3.03-2.87,4.82-2.87c1.05,0,2.26,0.51,3.6,1.52
	c1.34,1.01,2.64,2.14,3.91,3.36c1.26,1.23,3.07,2.35,5.44,3.36c2.36,1.02,4.96,1.52,7.81,1.52c3.91,0,7.16-0.89,9.77-2.69
	c2.61-1.79,3.91-4.43,3.91-7.93c0-2.45-0.71-4.62-2.14-6.54c-1.42-1.91-3.3-3.5-5.62-4.76c-2.32-1.26-4.86-2.48-7.63-3.66
	c-2.77-1.18-5.56-2.5-8.37-3.97s-5.37-3.11-7.69-4.95s-4.2-4.27-5.62-7.33c-1.43-3.05-2.14-6.53-2.14-10.44
	c0-4.38,0.88-8.25,2.62-11.59c1.75-3.35,4.09-5.95,7.02-7.81s6.06-3.22,9.4-4.09c3.34-0.87,6.88-1.3,10.62-1.3
	c2.11,0,4.35,0.15,6.71,0.44c2.36,0.29,4.86,0.77,7.51,1.44c2.64,0.67,4.8,1.71,6.47,3.13c1.67,1.42,2.5,3.09,2.5,5.02
	c0,1.81-0.57,3.69-1.71,5.62c-1.14,1.94-2.69,2.9-4.64,2.9c-0.73,0-2.73-0.77-5.98-2.32c-3.26-1.55-6.88-2.32-10.87-2.32
	c-4.4,0-7.8,0.84-10.2,2.5c-2.4,1.67-3.61,3.97-3.61,6.9c0,2.36,0.98,4.42,2.93,6.17c1.95,1.75,4.38,3.18,7.27,4.27
	c2.89,1.1,6.02,2.48,9.4,4.15c3.38,1.67,6.51,3.48,9.4,5.43c2.89,1.95,5.31,4.78,7.27,8.48c1.95,3.71,2.93,8.04,2.93,13.01
	c0,8.35-2.67,14.79-8,19.33c-5.34,4.54-12.36,6.8-21.07,6.8c-7.73,0-14.37-1.59-19.9-4.77C396.45,139.7,393.68,136.24,393.68,132.49
	z"/>
</svg>
