<?xml version="1.0" encoding="utf-8"?>
<!-- Generator: Adobe Illustrator 24.0.1, SVG Export Plug-In . SVG Version: 6.00 Build 0)  -->
<svg version="1.1" id="Capa_1" xmlns="http://www.w3.org/2000/svg" xmlns:xlink="http://www.w3.org/1999/xlink" x="0px" y="0px"
	 viewBox="0 0 512 512" style="enable-background:new 0 0 512 512;" xml:space="preserve">
<style type="text/css">
	.st0{fill:#FFFFFF;}
</style>
<g>
	<g>
		<g>
			<path class="st0" d="M384,0H128c-14.14,0-25.6,11.46-25.6,25.6v460.8c0,14.14,11.46,25.6,25.6,25.6h256
				c14.14,0,25.6-11.46,25.6-25.6V25.6C409.6,11.46,398.14,0,384,0z M392.53,68.27H196.27c-4.71,0-8.53,3.82-8.53,8.53
				s3.82,8.53,8.53,8.53h196.27v332.8h-25.6c-4.71,0-8.53,3.82-8.53,8.53s3.82,8.53,8.53,8.53h25.6v51.2c0,4.71-3.82,8.53-8.53,8.53
				H128c-4.71,0-8.53-3.82-8.53-8.53v-51.2h196.27c4.71,0,8.53-3.82,8.53-8.53s-3.82-8.53-8.53-8.53H119.47V85.33h25.6
				c4.71,0,8.53-3.82,8.53-8.53s-3.82-8.53-8.53-8.53h-25.6V25.6c0-4.71,3.82-8.53,8.53-8.53h256c4.71,0,8.53,3.82,8.53,8.53V68.27z
				"/>
			<path class="st0" d="M264.53,460.8h-17.07c-4.71,0-8.53,3.82-8.53,8.53s3.82,8.53,8.53,8.53h17.07c4.71,0,8.53-3.82,8.53-8.53
				S269.25,460.8,264.53,460.8z"/>
		</g>
	</g>
</g>
</svg>
