<?xml version="1.0" encoding="utf-8"?>
<!-- Generator: Adobe Illustrator 24.0.1, SVG Export Plug-In . SVG Version: 6.00 Build 0)  -->
<svg version="1.1" id="Capa_1" xmlns="http://www.w3.org/2000/svg" xmlns:xlink="http://www.w3.org/1999/xlink" x="0px" y="0px"
	 viewBox="0 0 512 512" style="enable-background:new 0 0 512 512;" xml:space="preserve">
<style type="text/css">
	.st0{fill:#FFFFFF;}
</style>
<g>
	<path class="st0" d="M496.73,248.51h-0.27V77.39c0-8.42-6.85-15.27-15.27-15.27H356.68V54.1c0-4.14-3.36-7.5-7.5-7.5
		c-4.14,0-7.5,3.36-7.5,7.5v8.03H217.17c-8.42,0-15.27,6.85-15.27,15.27v46.6c0,4.14,3.36,7.5,7.5,7.5c4.14,0,7.5-3.36,7.5-7.5
		v-46.6c0-0.15,0.12-0.27,0.27-0.27H481.2c0.15,0,0.27,0.12,0.27,0.27v171.11H341.42c-4.14,0-7.5,3.36-7.5,7.5s3.36,7.5,7.5,7.5
		h155.32c0.15,0,0.27,0.12,0.27,0.27v15.53c0,0.15-0.12,0.27-0.27,0.27H315.27c1.69-7.59,2.59-15.47,2.59-23.56
		c0-27.21-10.07-52.11-26.68-71.17l16.86-16.86c3.05,1.49,6.47,2.33,10.09,2.33c3.62,0,7.04-0.84,10.09-2.33l19.69,19.69
		c-1.49,3.05-2.33,6.47-2.33,10.09c0,12.7,10.33,23.03,23.03,23.03s23.03-10.33,23.03-23.03c0-3.62-0.84-7.04-2.33-10.09
		l42.98-42.98c3.05,1.49,6.47,2.33,10.09,2.33c12.7,0,23.03-10.33,23.03-23.03s-10.33-23.03-23.03-23.03s-23.03,10.33-23.03,23.03
		c0,3.62,0.84,7.04,2.33,10.09l-42.98,42.98c-3.05-1.49-6.47-2.33-10.09-2.33c-3.62,0-7.04,0.84-10.09,2.33l-19.69-19.69
		c1.49-3.05,2.33-6.47,2.33-10.09c0-12.7-10.33-23.03-23.03-23.03s-23.03,10.33-23.03,23.03c0,3.62,0.84,7.04,2.33,10.09
		l-16.86,16.86c-19.06-16.61-43.96-26.68-71.17-26.68c-59.8,0-108.46,48.65-108.46,108.46c0,27.21,10.07,52.11,26.68,71.17
		l-20.09,20.09c-8.59-4.17-19.24-2.72-26.36,4.4L6.73,426.1c-8.98,8.98-8.98,23.59,0,32.57c4.49,4.49,10.39,6.74,16.29,6.74
		s11.8-2.25,16.29-6.74l74.44-74.44c7.12-7.12,8.57-17.78,4.4-26.36l20.09-20.09c19.06,16.61,43.96,26.68,71.17,26.68
		c13.57,0,26.57-2.51,38.55-7.09l-6.84,20.51c-1.31,3.93,0.81,8.18,4.74,9.49c0.79,0.26,1.59,0.39,2.37,0.39
		c3.14,0,6.07-1.99,7.11-5.13l11.57-34.72c19.84-12.46,35.38-31.17,43.85-53.34h30.92v85.69c0,4.14,3.36,7.5,7.5,7.5
		c4.14,0,7.5-3.36,7.5-7.5v-85.69h56.99l29.35,88.06c1.05,3.14,3.97,5.13,7.11,5.13c0.79,0,1.59-0.12,2.37-0.39
		c3.93-1.31,6.05-5.56,4.74-9.49l-27.77-83.32h67.25c8.42,0,15.27-6.85,15.27-15.27v-15.53C512,255.35,505.15,248.51,496.73,248.51
		L496.73,248.51z M442.37,115.96c4.43,0,8.03,3.6,8.03,8.03s-3.6,8.03-8.03,8.03s-8.03-3.6-8.03-8.03S437.95,115.96,442.37,115.96z
		 M376.63,197.76c0,4.43-3.6,8.03-8.03,8.03s-8.03-3.6-8.03-8.03s3.6-8.03,8.03-8.03S376.63,193.33,376.63,197.76z M318.12,139.25
		c4.43,0,8.03,3.6,8.03,8.03s-3.6,8.03-8.03,8.03s-8.03-3.6-8.03-8.03S313.69,139.25,318.12,139.25z M28.7,448.06
		c-3.13,3.13-8.23,3.13-11.36,0c-3.13-3.13-3.13-8.23,0-11.36l56.82-56.82l11.36,11.36L28.7,448.06z M103.14,373.62l-7.01,7.01
		l-11.36-11.36l7.01-7.01c3.13-3.13,8.23-3.13,11.36,0C106.27,365.4,106.27,370.49,103.14,373.62z M209.4,349.46
		c-51.53,0-93.46-41.92-93.46-93.46s41.92-93.46,93.46-93.46c23.07,0,44.21,8.41,60.53,22.32l-50.44,50.44
		c-3.05-1.49-6.47-2.33-10.09-2.33c-12.7,0-23.03,10.33-23.03,23.03c0,12.7,10.33,23.03,23.03,23.03c12.7,0,23.03-10.33,23.03-23.03
		c0-3.62-0.84-7.04-2.33-10.09l28.4-28.4c8.6,10.95,13.29,24.42,13.29,38.49c0,34.4-27.99,62.39-62.39,62.39
		s-62.39-27.99-62.39-62.39s27.99-62.39,62.39-62.39c5.98,0,11.9,0.84,17.58,2.51c3.97,1.16,8.14-1.12,9.31-5.09
		c1.16-3.98-1.11-8.14-5.09-9.31c-7.05-2.07-14.38-3.11-21.79-3.11c-42.67,0-77.39,34.72-77.39,77.39s34.72,77.39,77.39,77.39
		s77.39-34.72,77.39-77.39c0-18.06-6.24-35.32-17.63-49.15l11.38-11.38c13.91,16.32,22.32,37.46,22.32,60.53
		C302.86,307.54,260.93,349.46,209.4,349.46L209.4,349.46z M217.43,256.01c0,4.43-3.6,8.03-8.03,8.03c-4.43,0-8.03-3.6-8.03-8.03
		s3.6-8.03,8.03-8.03C213.83,247.97,217.43,251.58,217.43,256.01z"/>
</g>
</svg>
