<?xml version="1.0" encoding="utf-8"?>
<!-- Generator: Adobe Illustrator 24.0.1, SVG Export Plug-In . SVG Version: 6.00 Build 0)  -->
<svg version="1.1" id="Capa_1" xmlns="http://www.w3.org/2000/svg" xmlns:xlink="http://www.w3.org/1999/xlink" x="0px" y="0px"
	 viewBox="0 0 512 512" style="enable-background:new 0 0 512 512;" xml:space="preserve">
<style type="text/css">
	.st0{fill:#FFFFFF;}
</style>
<g>
	<g>
		<g>
			<path class="st0" d="M512,106.67c0-17.67-14.33-32-32-32h-42.67V96H480c5.89,0,10.67,4.78,10.67,10.67v284.68l-53.16-53.16
				c25.55-45.59,18.95-104.35-19.83-143.12c-0.55-0.55-1.11-1.09-1.67-1.63V10.67C416,4.78,411.22,0,405.33,0h-224
				c-0.57,0-1.13,0.06-1.69,0.15c-0.12,0.02-0.24,0.03-0.37,0.05c-0.16,0.03-0.32,0.08-0.48,0.12c-0.18,0.04-0.36,0.08-0.54,0.14
				c-0.12,0.03-0.23,0.08-0.34,0.12c-0.22,0.07-0.43,0.14-0.65,0.23c-0.09,0.04-0.17,0.08-0.25,0.12c-0.23,0.1-0.47,0.21-0.69,0.33
				c-0.08,0.04-0.15,0.09-0.23,0.14c-0.22,0.13-0.45,0.25-0.66,0.4c-0.12,0.08-0.23,0.17-0.34,0.25c-0.17,0.12-0.34,0.24-0.51,0.37
				c-0.27,0.22-0.54,0.46-0.79,0.72L99.12,77.79c-2,2-3.12,4.71-3.12,7.54v213.33H74.67V320h32h10.67h102.96
				c16.55,46.28,60.77,79.4,112.74,79.4c20.68,0,40.81-5.36,58.54-15.3L423.43,416H32c-5.89,0-10.67-4.78-10.67-10.67V106.67
				C21.33,100.78,26.11,96,32,96h42.67V74.67H32c-17.67,0-32,14.33-32,32v298.67c0,17.67,14.33,32,32,32h154.15
				c-5.19,51.27-47.74,53.28-52.81,53.33c-5.89,0-10.67,4.78-10.67,10.67S127.44,512,133.33,512h245.33
				c5.89,0,10.67-4.78,10.67-10.67s-4.78-10.67-10.67-10.67c-2.01,0-47.39-0.65-52.8-53.33h118.87l11.83,11.84
				c6.08,6.1,14.35,9.51,22.96,9.49c8.62-0.02,16.87-3.47,22.93-9.6c6.19-6.2,9.34-14.28,9.48-22.4H512V106.67z M327.35,490.67
				h-142.7c13.95-14.53,22.15-33.46,23.37-53.33h95.96C305.19,457.2,313.4,476.14,327.35,490.67z M117.33,298.67V89.75l53.33-53.33
				v38.25h-21.33V96h32c5.89,0,10.67-4.78,10.67-10.67v-64h202.67v155.76C376.2,166,354.93,160,333.03,160
				c-17.64,0-34.38,3.82-49.46,10.67H149.33V192h102.24c-9.87,9.17-18.18,19.98-24.51,32h-77.73v21.33h69.01
				c-3.26,10.89-5.02,22.42-5.02,34.37c0,6.45,0.52,12.79,1.5,18.96L117.33,298.67L117.33,298.67z M234.68,279.71
				c-0.01-54.33,44.03-98.37,98.36-98.38c26.1-0.08,51.15,10.29,69.56,28.8c18.45,18.45,28.82,43.47,28.82,69.56
				c0,26.94-10.83,51.35-28.37,69.12l-0.9,0.9c-17.76,17.53-42.15,28.35-69.08,28.36C278.73,378.08,234.68,334.04,234.68,279.71z
				 M425.55,356.51l15.73,15.73l-15.76,15.76l-15.73-15.73L425.55,356.51z M471.66,434.13l-31.06-31.06l15.76-15.76l31.06,31.06
				c2.16,2.16,3.24,4.99,3.25,7.83v0.11c-0.01,2.83-1.1,5.66-3.25,7.83C483.06,438.47,476.01,438.47,471.66,434.13z"/>
			<path class="st0" d="M279.23,225.9l15.08,15.08c21.4-21.35,56.04-21.35,77.44,0l15.08-15.08
				C357.1,196.24,308.97,196.24,279.23,225.9z"/>
			<path class="st0" d="M42.67,341.33V384c0,5.89,4.78,10.67,10.67,10.67H96v-21.33H64v-32L42.67,341.33L42.67,341.33z"/>
			<rect x="117.33" y="373.33" class="st0" width="21.33" height="21.33"/>
			<rect x="149.33" y="117.33" class="st0" width="213.33" height="21.33"/>
		</g>
	</g>
</g>
</svg>
