<svg id="Layer_1" data-name="Layer 1" xmlns="http://www.w3.org/2000/svg" viewBox="0 0 511.27 416.58"><defs><style>.cls-1{fill:#fff;}</style></defs><title>twitter</title><path class="cls-1" d="M508.34,46.9a11.38,11.38,0,0,0-10.41-2.61l-17.36,6.08a118.85,118.85,0,0,0,21.7-37.32c1.73-4.34.86-7.81-1.74-10.41A9.24,9.24,0,0,0,490.12.9C465.82,11.32,445,20,427.64,25.2c0,.87-.87,0-1.74,0C412,17.39,378.17,0,353.87,0,292.26.9,242.79,53,242.79,116.32v3.47C152.54,102.43,103.08,76.4,49.28,20L40.6,11.32,35.39,21.73C5.89,78.14,26.71,129.34,60.56,164.05c-15.62-2.6-26-7.81-35.58-15.62-3.47-2.6-7.81-3.47-12.15-.87-3.47,1.74-5.21,6.94-4.34,11.28C20.64,199.63,51,232.6,84,252.56c-15.62,0-28.64-1.73-41.66-10.41-3.47-1.74-8.67-1.74-12.14.87S25,250,26.71,254.3c15.62,44.26,46,67.69,94.59,73.76C96.14,342.81,63.16,355,12,355.83A12.36,12.36,0,0,0,.68,363.64c-1.73,5.21,0,9.55,3.47,13,31.24,25.16,100.67,39.92,186.58,39.92,152.73,0,277.69-136.25,277.69-303.73v-2.6c19.1-9.55,34.72-27.77,42.53-52.94A11.43,11.43,0,0,0,508.34,46.9ZM456.27,96.36l-5.2,1.74v14.75c0,157.94-117.16,286.37-260.34,286.37-79,0-131.91-13-160.54-26.9,59.87-4.34,94.59-23.43,121.49-44.26l21.69-15.62h-26c-49.47,0-79.84-13.88-97.19-46.86,15.62,5.21,32.1,5.21,50.33,4.34a166.68,166.68,0,0,1,20.82-.87l2.61-17.35c-33-9.55-72-39.06-91.12-79,17.35,7.81,36.45,9.54,53.8,9.54h26.9L91.8,166.65c-18.22-13-72-59-46-125,55.54,54.67,108.47,79.84,203.93,97.19l10.41,1.74v-24.3c0-53.8,41.66-98.06,93.72-98.93,20-.87,52.94,17.36,62.49,22.56,5.2,2.61,10.41,3.47,15.62,1.74,13-4.34,28.63-10.41,46-17.36a138.71,138.71,0,0,1-32.11,36.45c-3.47,2.6-4.34,7.81-2.6,12.15s6.94,6.08,11.28,4.34L488.38,66C482.31,77.27,472.76,90.29,456.27,96.36Z"/></svg>