<svg id="Capa_1" data-name="Capa 1" xmlns="http://www.w3.org/2000/svg" viewBox="0 0 512 512"><defs><style>.cls-1{fill:#fff;}</style></defs><title>video-camera</title><path class="cls-1" d="M504.17,194.23a16.17,16.17,0,0,0-15.83-.28L384,250.86V208a16,16,0,0,0-16-16H350.13A111.87,111.87,0,1,0,169.57,67.07C151.94,45.83,125.69,32,96,32A95.91,95.91,0,0,0,28.56,196.2,48,48,0,0,0,0,240V464a48.05,48.05,0,0,0,48,48H368a16,16,0,0,0,16-16V453.14l104.34,56.91A16,16,0,0,0,512,496V208a16,16,0,0,0-7.83-13.77ZM272,32a80,80,0,1,1-80,80A80.09,80.09,0,0,1,272,32ZM193.87,192H167a95.93,95.93,0,0,0,12.29-17.23A112,112,0,0,0,193.87,192ZM96,64a64,64,0,1,1-64,64A64.06,64.06,0,0,1,96,64ZM480,469.05,375.66,412.14A16,16,0,0,0,352,426.19V480H48a16,16,0,0,1-16-16V240a16,16,0,0,1,16-16H352v53.81a16,16,0,0,0,23.66,14.05L480,235Z" transform="translate(0 0)"/></svg>